#N canvas 143 26 1108 722 12;
#X obj 17 16 r voice-note-\$1;
#X obj 150 44 unpack 0 0;
#X obj 18 576 *~;
#X obj 673 134 r amp-a;
#X obj 733 92 r amp-d;
#X obj 754 115 r amp-s;
#X obj 777 140 r amp-r;
#X obj 655 165 adsr 1 1 1 100 20;
#X obj 910 569 pow~ 2;
#X obj 797 84 / 127;
#X obj 827 116 *;
#X obj 859 84 f 1;
#X obj 878 113 -;
#X obj 845 142 +;
#X obj 846 42 t b;
#X obj 881 21 r amp-vel-snd;
#X obj 885 214 *~;
#X obj 868 171 sel;
#X obj 789 39 t b;
#X obj 936 124 sel 0;
#X msg 936 166 1;
#X obj 72 578 *~;
#X obj 18 676 throw~ outs1;
#X obj 34 648 throw~ outs2;
#X obj 142 77 mtof;
#X obj 340 239 ead~;
#X obj 82 277 *~;
#X obj 90 224 r fb-snd;
#X obj 99 251 sig~;
#X obj 288 463 +~;
#X floatatom 83 155 5 0 0 0 - - -, f 5;
#X obj 72 118 /;
#X msg 29 75 1000;
#X obj 192 190 noise~;
#X obj 355 304 *~;
#X floatatom 150 128 5 0 0 0 - - -, f 5;
#X obj 201 91 sel 0;
#X obj 217 124 t b;
#X obj 84 56 t b;
#X msg 180 160 seed 1;
#X obj 18 615 *~ 0.5;
#X obj 72 616 *~ 0.5;
#X obj 150 283 r clip-snd;
#X obj 310 160 r imp-a;
#X obj 405 163 r imp-d;
#X floatatom 333 186 5 0 0 0 - - -, f 5;
#X floatatom 428 194 5 0 0 0 - - -, f 5;
#X obj 103 314 *~;
#X obj 131 358 clip~ -1 1;
#X obj 155 387 lop~ 1000;
#X obj 225 342 r damp-snd;
#X floatatom 247 385 5 0 0 0 - - -, f 5;
#X obj 224 429 *~ -1;
#X obj 13 194 delread~ note\$1;
#X obj 280 500 delwrite~ note\$1 50;
#X connect 0 0 1 0;
#X connect 1 0 24 0;
#X connect 1 0 35 0;
#X connect 1 0 38 0;
#X connect 1 1 7 0;
#X connect 1 1 9 0;
#X connect 1 1 18 0;
#X connect 1 1 36 0;
#X connect 2 0 40 0;
#X connect 3 0 7 2;
#X connect 4 0 7 3;
#X connect 5 0 7 4;
#X connect 6 0 7 5;
#X connect 7 0 16 0;
#X connect 8 0 2 1;
#X connect 8 0 21 1;
#X connect 9 0 10 0;
#X connect 10 0 13 0;
#X connect 11 0 12 0;
#X connect 12 0 13 1;
#X connect 12 0 17 1;
#X connect 13 0 17 0;
#X connect 14 0 11 0;
#X connect 14 0 9 0;
#X connect 15 0 10 1;
#X connect 15 0 12 1;
#X connect 15 0 14 0;
#X connect 15 0 19 0;
#X connect 16 0 8 0;
#X connect 17 1 16 1;
#X connect 18 0 9 0;
#X connect 19 0 20 0;
#X connect 20 0 16 1;
#X connect 21 0 41 0;
#X connect 24 0 31 1;
#X connect 25 0 34 1;
#X connect 25 0 29 1;
#X connect 26 0 47 0;
#X connect 27 0 28 0;
#X connect 28 0 26 1;
#X connect 29 0 54 0;
#X connect 31 0 30 0;
#X connect 31 0 53 0;
#X connect 32 0 31 0;
#X connect 33 0 34 0;
#X connect 36 1 37 0;
#X connect 37 0 25 0;
#X connect 38 0 32 0;
#X connect 38 0 39 0;
#X connect 39 0 33 0;
#X connect 40 0 22 0;
#X connect 41 0 23 0;
#X connect 42 0 47 1;
#X connect 43 0 25 1;
#X connect 43 0 45 0;
#X connect 44 0 25 2;
#X connect 44 0 46 0;
#X connect 47 0 48 0;
#X connect 48 0 49 0;
#X connect 49 0 52 0;
#X connect 50 0 49 1;
#X connect 50 0 51 0;
#X connect 52 0 29 0;
#X connect 53 0 26 0;
#X connect 53 0 2 0;
#X connect 53 0 21 0;
